<?xml version="1.0" encoding="utf-8"?> <!-- Generator: IcoMoon.io --> <!DOCTYPE svg PUBLIC "-//W3C//DTD SVG 1.1//EN" "http://www.w3.org/Graphics/SVG/1.1/DTD/svg11.dtd"> 
<svg width="100" height="100" viewBox="0 0 512 512" xmlns="http://www.w3.org/2000/svg" xmlns:xlink="http://www.w3.org/1999/xlink" class="svg-icon">
	<path d="M 464.00,64.00L 48.00,64.00 C 21.488,64.00,0.00,85.488,0.00,112.00l0.00,288.00 c0.00,26.496, 21.488,48.00, 48.00,48.00l 416.00,0.00 c 26.512,0.00, 48.00-21.504, 48.00-48.00L 512.00,112.00 C 512.00,85.488, 490.512,64.00, 464.00,64.00z M 43.856,415.84 L 32.16,404.128l 131.984-131.968l 11.696,11.712L 43.856,415.84z M 468.144,415.84l-131.984-131.968l 11.696-11.712l 131.984,131.968L 468.144,415.84z M 272.00,309.20 L 272.00,320.00 l-32.00,0.00 l0.00-10.80 L 32.048,116.40l 20.352-20.352L 256.00,284.816L 459.60,96.048l 20.352,20.352L 272.00,309.20z" >
	</path>
</svg>