<?xml version="1.0" encoding="UTF-8" standalone="no"?>
<svg
   xmlns:dc="http://purl.org/dc/elements/1.1/"
   xmlns:cc="http://creativecommons.org/ns#"
   xmlns:rdf="http://www.w3.org/1999/02/22-rdf-syntax-ns#"
   xmlns:svg="http://www.w3.org/2000/svg"
   xmlns="http://www.w3.org/2000/svg"
   width="100px" 
   height="100px" 
   viewBox="0 0 64 64"
   id="svg4231"
   class="svg-icon"
   version="1.1">
  <metadata
     id="metadata4236">
    <rdf:RDF>
      <cc:Work
         rdf:about="">
        <dc:format>image/svg+xml</dc:format>
        <dc:type
           rdf:resource="http://purl.org/dc/dcmitype/StillImage" />
        <dc:title></dc:title>
      </cc:Work>
    </rdf:RDF>
  </metadata>
  <g
     id="layer1">
    <path
       id="path2830"
       d="m 8.2066776,36.963544 4.4013074,0.04316 -0.153441,19.598393 29.291258,0 0,-19.527506 4.637782,0 0,24.287331 -38.200679,0 0.023777,-24.401371 z" />
    <rect
       id="rect3604"
       y="48.549992"
       x="15.383667"
       height="4.881876"
       width="22.944817" />
    <rect
       id="rect3606"
       transform="matrix(0.9953749,0.09606666,-0.09606666,0.9953749,0,0)"
       y="38.051189"
       x="19.667879"
       height="5.0039229"
       width="23.066864" />
    <rect
       id="rect3606-1"
       transform="matrix(0.96240291,0.27162592,-0.27162592,0.96240291,0,0)"
       y="23.81143"
       x="25.447008"
       height="5.0039229"
       width="23.066864" />
    <rect
       id="rect3606-1-3"
       transform="matrix(0.85597805,0.51701216,-0.51701216,0.85597805,0,0)"
       y="3.8206301"
       x="29.64859"
       height="5.0039229"
       width="23.066864" />
    <rect
       id="rect3606-1-3-7"
       transform="matrix(0.58242689,0.81288309,-0.81288309,0.58242689,0,0)"
       y="-23.514734"
       x="26.646437"
       height="5.0039229"
       width="23.066864" />
    <rect
       id="rect3606-1-3-7-6"
       transform="matrix(0.16480989,0.98632535,-0.98632535,0.16480989,0,0)"
       y="-49.081326"
       x="11.107887"
       height="5.0039229"
       width="23.066864" />
  </g>
</svg>
